<svg xmlns="http://www.w3.org/2000/svg" version="1.1" xmlns:xlink="http://www.w3.org/1999/xlink" xmlns:svgjs="http://svgjs.dev/svgjs" width="1000" height="126" viewBox="0 0 1000 126"><g transform="matrix(1,0,0,1,-0.6060606060606233,-0.6227085113525419)"><svg viewBox="0 0 396 50" data-background-color="#ffffff" preserveAspectRatio="xMidYMid meet" height="126" width="1000" xmlns="http://www.w3.org/2000/svg" xmlns:xlink="http://www.w3.org/1999/xlink"><g id="tight-bounds" transform="matrix(1,0,0,1,0.2400000000000091,0.24710655212402344)"><svg viewBox="0 0 395.52 49.505785167997935" height="49.505785167997935" width="395.52"><rect width="395.5199890136719" height="49.50578689575195" fill="url(#2b194069-a732-4de5-a71f-fd87cf0abe66)" mask="url(&quot;#bc099710-2532-466d-8d8a-1deba81ba28c&quot;)" data-fill-palette-color="accent"></rect><rect width="395.5199890136719" height="49.50578689575195" fill="url(#94f2e5e5-4458-4b14-ba4e-24724af4536b)" mask="url(&quot;#98c530e5-f4ec-4dd3-ae07-f46bb98e7735&quot;)" data-fill-palette-color="primary"></rect><g><svg viewBox="0 0 659.4369065276362 82.53929466627805" height="49.505785167997935" width="395.52"><g><svg viewBox="0 0 395.52 82.53929466627805" height="82.53929466627805" width="395.52"><g id="textblocktransform"><svg viewBox="0 0 395.52 82.53929466627805" height="82.53929466627805" width="395.52" id="textblock"><g><svg viewBox="0 0 395.52 82.53929466627805" height="82.53929466627805" width="395.52"><g transform="matrix(1,0,0,1,0,0)"><svg width="395.52" viewBox="2.8499999046325684 -35.29999923706055 171.52999877929688 35.79999923706055" height="82.53929466627805" data-palette-color="url(#94f2e5e5-4458-4b14-ba4e-24724af4536b)"></svg></g></svg></g></svg></g></svg></g><g transform="matrix(1,0,0,1,415.0055465276362,10.092616603348308)"><svg viewBox="0 0 244.43135999999998 62.35406145958144" height="62.35406145958144" width="244.43135999999998"><g><svg xmlns="http://www.w3.org/2000/svg" xmlns:xlink="http://www.w3.org/1999/xlink" version="1.1" x="0" y="0" viewBox="1.75 38.63800048828125 96.5 24.617000579833984" enable-background="new 0 0 100 100" xml:space="preserve" height="62.35406145958144" width="244.43135999999998" class="icon-icon-0" data-fill-palette-color="accent" id="icon-0"></svg></g></svg></g></svg></g><defs></defs><mask id="98c530e5-f4ec-4dd3-ae07-f46bb98e7735"><g id="SvgjsG1040"><svg viewBox="0 0 395.52 49.505785167997935" height="49.505785167997935" width="395.52"><g><svg viewBox="0 0 659.4369065276362 82.53929466627805" height="49.505785167997935" width="395.52"><g><svg viewBox="0 0 395.52 82.53929466627805" height="82.53929466627805" width="395.52"><g id="SvgjsG1039"><svg viewBox="0 0 395.52 82.53929466627805" height="82.53929466627805" width="395.52" id="SvgjsSvg1038"><g><svg viewBox="0 0 395.52 82.53929466627805" height="82.53929466627805" width="395.52"><g transform="matrix(1,0,0,1,0,0)"><svg width="395.52" viewBox="2.8499999046325684 -35.29999923706055 171.52999877929688 35.79999923706055" height="82.53929466627805" data-palette-color="url(#94f2e5e5-4458-4b14-ba4e-24724af4536b)"><path d="M2.85-33.65L2.85-35.3 25.9-35.3 25.9-33.65 15.25-33.65 15.25 0 13.5 0 13.5-33.65 2.85-33.65ZM25.6-9.7L25.6-9.7Q25.6-12.5 26.95-14.8 28.3-17.1 30.62-18.45 32.95-19.8 35.8-19.8L35.8-19.8Q38.65-19.8 40.95-18.45 43.25-17.1 44.6-14.78 45.95-12.45 45.95-9.7L45.95-9.7Q45.95-6.9 44.6-4.63 43.25-2.35 40.95-1 38.65 0.35 35.75 0.35L35.75 0.35Q32.9 0.35 30.6-0.95 28.3-2.25 26.95-4.5 25.6-6.75 25.6-9.7ZM27.3-9.7L27.3-9.7Q27.3-7.25 28.42-5.33 29.55-3.4 31.47-2.25 33.4-1.1 35.75-1.1L35.75-1.1Q38.1-1.1 40-2.25 41.9-3.4 43.05-5.33 44.2-7.25 44.2-9.7L44.2-9.7Q44.2-12.05 43.05-14 41.9-15.95 40-17.13 38.1-18.3 35.75-18.3L35.75-18.3Q33.35-18.3 31.42-17.05 29.5-15.8 28.4-13.85 27.3-11.9 27.3-9.7ZM59.15 0.5L59.15 0.5Q56.4 0.5 54.8-1.1 53.2-2.7 53.09-5.3L53.09-5.3 53.09-19.25 54.8-19.25 54.8-5.7Q54.9-3.75 56.09-2.43 57.3-1.1 59.65-1L59.65-1Q61.59-1 63.32-2 65.05-3 66.12-4.7 67.2-6.4 67.2-8.6L67.2-8.6 67.2-19.25 68.9-19.25 68.9 0 67.4 0 67.2-6 67.5-5.05Q67-3.5 65.75-2.25 64.5-1 62.75-0.25 61 0.5 59.15 0.5ZM77.99-19.25L79.44-19.25 79.64-13.3 79.44-13.95Q80.04-15.75 81.37-17.03 82.69-18.3 84.42-18.98 86.14-19.65 87.84-19.7L87.84-19.7 87.79-18.05Q85.54-18.05 83.72-17.05 81.89-16.05 80.79-14.4 79.69-12.75 79.69-10.6L79.69-10.6 79.69 0 77.99 0 77.99-19.25ZM94.59 0L94.59-19.25 96.29-19.25 96.29 0 94.59 0ZM94.04-25.85L94.04-25.85Q94.04-26.4 94.49-26.8 94.94-27.2 95.54-27.2L95.54-27.2Q96.09-27.2 96.52-26.8 96.94-26.4 96.94-25.85L96.94-25.85Q96.94-25.25 96.52-24.85 96.09-24.45 95.54-24.45L95.54-24.45Q94.94-24.45 94.49-24.85 94.04-25.25 94.04-25.85ZM109.69 0.4L109.69 0.4Q108.14 0.4 106.36-0.18 104.59-0.75 103.49-2.15L103.49-2.15 104.34-3.2Q105.24-2.2 106.61-1.6 107.99-1 109.64-1L109.64-1Q110.79-1 111.86-1.35 112.94-1.7 113.64-2.6 114.34-3.5 114.34-5L114.34-5Q114.34-6.45 113.54-7.25 112.74-8.05 111.56-8.53 110.39-9 109.04-9.4L109.04-9.4Q107.04-10.1 105.64-11.2 104.24-12.3 104.24-14.5L104.24-14.5Q104.24-16.1 104.99-17.23 105.74-18.35 107.04-18.98 108.34-19.6 109.84-19.6L109.84-19.6Q111.19-19.6 112.66-19.1 114.14-18.6 115.34-17.4L115.34-17.4 114.54-16.2Q113.69-17.3 112.36-17.73 111.04-18.15 110.04-18.15L110.04-18.15Q109.14-18.15 108.19-17.8 107.24-17.45 106.59-16.7 105.94-15.95 105.94-14.7L105.94-14.7Q105.94-13.55 106.56-12.8 107.19-12.05 108.19-11.58 109.19-11.1 110.29-10.7L110.29-10.7Q111.69-10.25 112.99-9.65 114.29-9.05 115.14-8.05 115.99-7.05 115.99-5.35L115.99-5.35Q115.99-3.7 115.29-2.4 114.59-1.1 113.19-0.35 111.79 0.4 109.69 0.4ZM125.19-18.9L125.19-27.65 126.94-27.65 126.94-18.9 133.09-18.9 133.09-17.5 126.94-17.5 126.94 0 125.19 0 125.19-17.5 120.94-17.5 120.94-18.9 125.19-18.9ZM137.03-9.7L137.03-9.7Q137.03-12.5 138.38-14.8 139.73-17.1 142.06-18.45 144.38-19.8 147.23-19.8L147.23-19.8Q150.08-19.8 152.38-18.45 154.68-17.1 156.03-14.78 157.38-12.45 157.38-9.7L157.38-9.7Q157.38-6.9 156.03-4.63 154.68-2.35 152.38-1 150.08 0.35 147.18 0.35L147.18 0.35Q144.33 0.35 142.03-0.95 139.73-2.25 138.38-4.5 137.03-6.75 137.03-9.7ZM138.73-9.7L138.73-9.7Q138.73-7.25 139.86-5.33 140.98-3.4 142.91-2.25 144.83-1.1 147.18-1.1L147.18-1.1Q149.53-1.1 151.43-2.25 153.33-3.4 154.48-5.33 155.63-7.25 155.63-9.7L155.63-9.7Q155.63-12.05 154.48-14 153.33-15.95 151.43-17.13 149.53-18.3 147.18-18.3L147.18-18.3Q144.78-18.3 142.86-17.05 140.93-15.8 139.83-13.85 138.73-11.9 138.73-9.7ZM164.53-19.25L165.98-19.25 166.18-13.3 165.98-13.95Q166.58-15.75 167.91-17.03 169.23-18.3 170.96-18.98 172.68-19.65 174.38-19.7L174.38-19.7 174.33-18.05Q172.08-18.05 170.26-17.05 168.43-16.05 167.33-14.4 166.23-12.75 166.23-10.6L166.23-10.6 166.23 0 164.53 0 164.53-19.25Z" opacity="1" transform="matrix(1,0,0,1,0,0)" fill="white" class="wordmark-text-0" id="SvgjsPath1037"></path></svg></g></svg></g></svg></g></svg></g><g transform="matrix(1,0,0,1,415.0055465276362,10.092616603348308)"><svg viewBox="0 0 244.43135999999998 62.35406145958144" height="62.35406145958144" width="244.43135999999998"><g><svg xmlns="http://www.w3.org/2000/svg" xmlns:xlink="http://www.w3.org/1999/xlink" version="1.1" x="0" y="0" viewBox="1.75 38.63800048828125 96.5 24.617000579833984" enable-background="new 0 0 100 100" xml:space="preserve" height="62.35406145958144" width="244.43135999999998" class="icon-icon-0" data-fill-palette-color="accent" id="SvgjsSvg1036"></svg></g></svg></g></svg></g><defs><mask></mask></defs></svg></g></mask><linearGradient x1="0" x2="1" y1="0.5" y2="0.5" id="94f2e5e5-4458-4b14-ba4e-24724af4536b"><stop stop-color="#fff72e" offset="0"></stop><stop stop-color="#deae29" offset="1"></stop></linearGradient><mask id="bc099710-2532-466d-8d8a-1deba81ba28c"><g id="SvgjsG1049"><svg viewBox="0 0 395.52 49.505785167997935" height="49.505785167997935" width="395.52"><g><svg viewBox="0 0 659.4369065276362 82.53929466627805" height="49.505785167997935" width="395.52"><g><svg viewBox="0 0 395.52 82.53929466627805" height="82.53929466627805" width="395.52"><g id="SvgjsG1048"><svg viewBox="0 0 395.52 82.53929466627805" height="82.53929466627805" width="395.52" id="SvgjsSvg1047"><g><svg viewBox="0 0 395.52 82.53929466627805" height="82.53929466627805" width="395.52"><g transform="matrix(1,0,0,1,0,0)"><svg width="395.52" viewBox="2.8499999046325684 -35.29999923706055 171.52999877929688 35.79999923706055" height="82.53929466627805" data-palette-color="url(#94f2e5e5-4458-4b14-ba4e-24724af4536b)"></svg></g></svg></g></svg></g></svg></g><g transform="matrix(1,0,0,1,415.0055465276362,10.092616603348308)"><svg viewBox="0 0 244.43135999999998 62.35406145958144" height="62.35406145958144" width="244.43135999999998"><g><svg xmlns="http://www.w3.org/2000/svg" xmlns:xlink="http://www.w3.org/1999/xlink" version="1.1" x="0" y="0" viewBox="1.75 38.63800048828125 96.5 24.617000579833984" enable-background="new 0 0 100 100" xml:space="preserve" height="62.35406145958144" width="244.43135999999998" class="icon-icon-0" data-fill-palette-color="accent" id="SvgjsSvg1046"><path d="M88.652 49.072H63.248l-7.186-4.925h-7.195l2.92 4.925H35.039L29.07 38.638h-5.513v17.525c0 3.917 3.175 7.092 7.091 7.092h58.004c3.916 0 9.598-3.175 9.598-7.092C98.25 52.247 92.568 49.072 88.652 49.072zM92.59 55.718h-7.094c-0.361 0-0.657-0.297-0.657-0.657v-2.824c7.86 0.184 8.301 2.833 8.301 2.833C93.199 55.426 92.951 55.718 92.59 55.718z" fill="white"></path><path d="M18.543 49.693H3.003c-0.692 0-1.253 0.561-1.253 1.253s0.561 1.253 1.253 1.253h15.54c0.692 0 1.253-0.561 1.253-1.253S19.236 49.693 18.543 49.693z" fill="white"></path><path d="M18.543 58.994H3.003c-0.692 0-1.253 0.561-1.253 1.253S2.311 61.5 3.003 61.5h15.54c0.692 0 1.253-0.561 1.253-1.253S19.236 58.994 18.543 58.994z" fill="white"></path><path d="M18.543 54.344h-6.517c-0.692 0-1.253 0.561-1.253 1.253s0.561 1.253 1.253 1.253h6.517c0.692 0 1.253-0.561 1.253-1.253S19.236 54.344 18.543 54.344z" fill="white"></path></svg></g></svg></g></svg></g><defs><mask></mask></defs><mask><g id="SvgjsG1045"><svg viewBox="0 0 395.52 49.505785167997935" height="49.505785167997935" width="395.52"><g><svg viewBox="0 0 659.4369065276362 82.53929466627805" height="49.505785167997935" width="395.52"><g><svg viewBox="0 0 395.52 82.53929466627805" height="82.53929466627805" width="395.52"><g id="SvgjsG1044"><svg viewBox="0 0 395.52 82.53929466627805" height="82.53929466627805" width="395.52" id="SvgjsSvg1043"><g><svg viewBox="0 0 395.52 82.53929466627805" height="82.53929466627805" width="395.52"><g transform="matrix(1,0,0,1,0,0)"><svg width="395.52" viewBox="2.8499999046325684 -35.29999923706055 171.52999877929688 35.79999923706055" height="82.53929466627805" data-palette-color="url(#94f2e5e5-4458-4b14-ba4e-24724af4536b)"></svg></g></svg></g></svg></g></svg></g><g transform="matrix(1,0,0,1,415.0055465276362,10.092616603348308)"><svg viewBox="0 0 244.43135999999998 62.35406145958144" height="62.35406145958144" width="244.43135999999998"><g><svg xmlns="http://www.w3.org/2000/svg" xmlns:xlink="http://www.w3.org/1999/xlink" version="1.1" x="0" y="0" viewBox="1.75 38.63800048828125 96.5 24.617000579833984" enable-background="new 0 0 100 100" xml:space="preserve" height="62.35406145958144" width="244.43135999999998" class="icon-icon-0" data-fill-palette-color="accent" id="SvgjsSvg1041"></svg></g></svg></g></svg></g><defs><mask></mask></defs></svg></g></mask></svg></g></mask><linearGradient x1="0" x2="1" y1="0.5" y2="0.5" id="2b194069-a732-4de5-a71f-fd87cf0abe66"><stop stop-color="#fff72e" offset="0"></stop><stop stop-color="#deae29" offset="1"></stop></linearGradient></svg><rect width="395.52" height="49.505785167997935" fill="none" stroke="none" visibility="hidden"></rect></g></svg></g></svg>